<svg id="Layer_1" enable-background="new 0 0 512 512" height="512" viewBox="0 0 512 512" width="512" xmlns="http://www.w3.org/2000/svg"><g><path d="m250.348 320.954c0-4.142-3.358-7.5-7.5-7.5h-235.348c-9.697 0-9.697 15 0 15h235.348c4.142 0 7.5-3.358 7.5-7.5z"/><path d="m504.5 340.613h-206.547c-9.697 0-9.697 15 0 15h206.547c9.697 0 9.697-15 0-15z"/><path d="m381.679 384.357h-167.866c-9.697 0-9.697 15 0 15h167.866c9.697 0 9.697-15 0-15z"/><path d="m129.667 241.877c0-14.338-11.334-26.003-25.266-26.003-33.516 1.418-33.506 50.594 0 52.007 13.932 0 25.266-11.666 25.266-26.004zm-35.532 0c0-6.067 4.605-11.003 10.267-11.003 13.618.602 13.614 21.408 0 22.007-5.662 0-10.267-4.937-10.267-11.004z"/><path d="m406.923 241.877c0 14.338 11.334 26.004 25.266 26.004 33.515-1.419 33.506-50.594 0-52.007-13.931 0-25.266 11.665-25.266 26.003zm35.533 0c0 6.067-4.605 11.004-10.266 11.004-13.619-.602-13.615-21.408 0-22.007 5.66 0 10.266 4.936 10.266 11.003z"/><path d="m349.427 156.606h-30.309c-9.931.344-9.923 14.659 0 15h30.309c9.93-.344 9.923-14.659 0-15z"/><path d="m504.5 112.643h-73.449c-4.142 0-7.5 3.358-7.5 7.5v42.836s-13.84-10.953-13.84-10.953c-37.815-29.914-72.695-25.599-117.311-25.623-4.142-.001-7.5 3.357-7.5 7.499v19.955c0 9-3.511 17.427-9.887 23.729-10.332 10.211-26.797 12.424-39.463 5.123l-30.999-17.865c-2.132-1.228-4.729-1.333-6.953-.281l-61.26 28.991c-12.127-8.334-28.777-11.769-43.728-8.496-9.492 1.984-6.422 16.669 3.069 14.682 26.128-5.737 51.734 15.226 51.442 42.137 0 23.18-19.351 43.037-42.718 43.037-33.428.261-54.128-38.056-36.028-66.146 5.19-8.191-7.481-16.22-12.671-8.027-3.769 5.949-6.403 12.491-7.814 19.323h-12.041c-19.767-.001-35.849 16.136-35.849 35.97 0 4.142 3.358 7.5 7.5 7.5h48.545c22.247 34.989 74.479 34.972 96.712 0h231.076c13.234 21.405 42.618 32.267 67.214 23.195 9.16-3.185 4.234-17.355-4.925-14.169-27.091 9.879-57.138-11.706-56.651-40.684 0-23.178 19.385-43.037 42.718-43.037 31.03-.382 52.244 33.76 38.541 61.622-4.168 8.756 9.376 15.203 13.544 6.447 6.16-12.94 7.289-28.412 3.08-42.121l23.003-28.764c1.063-1.33 1.643-2.981 1.643-4.684v-71.197c0-4.142-3.358-7.499-7.5-7.499zm-488.122 145.891c3.006-7.871 10.601-13.471 19.471-13.471h10.92c.252 4.656 1.052 9.167 2.336 13.471zm480.622-130.891v28.963h-21.724v-28.963zm-264.132 130.891c8.448-16.881 25.809-28.008 45.101-28.008h97.611c-1.833 9.257-1.387 18.957 1.314 28.008zm147.902-43.008h-102.801c-27.516 0-51.999 17.417-61.419 43.008h-56.853c5.768-18.265.933-40.218-11.245-54.119l52.011-24.614 27.596 15.904c18.498 10.661 42.346 7.528 57.498-7.451 9.249-9.142 14.343-21.357 14.343-34.397v-12.455c38.521-.099 67.948-3.269 100.502 22.387 0-.001 23.149 18.32 23.149 18.32v2.38c-18.689 2.831-34.47 14.707-42.781 31.037zm99.438-5.82c-9.247-13.909-24.306-23.595-41.657-25.517v-5.66c0-.019 0-.037 0-.056v-50.831h21.725v36.463c0 4.142 3.358 7.5 7.5 7.5h29.224v17.103z"/></g></svg>