<?xml version="1.0" encoding="iso-8859-1"?>
<!-- Generator: Adobe Illustrator 19.0.0, SVG Export Plug-In . SVG Version: 6.00 Build 0)  -->
<svg version="1.1" id="Capa_1" xmlns="http://www.w3.org/2000/svg" xmlns:xlink="http://www.w3.org/1999/xlink" x="0px" y="0px"
	 viewBox="0 0 496 496" style="enable-background:new 0 0 496 496;" xml:space="preserve">
<g>
	<g>
		<path d="M376,264c-13.232,0-24,10.768-24,24s10.768,24,24,24s24-10.768,24-24S389.232,264,376,264z M376,296c-4.408,0-8-3.584-8-8
			c0-4.416,3.592-8,8-8c4.408,0,8,3.584,8,8C384,292.416,380.408,296,376,296z"/>
	</g>
</g>
<g>
	<g>
		<path d="M120,264c-13.232,0-24,10.768-24,24s10.768,24,24,24s24-10.768,24-24S133.232,264,120,264z M120,296c-4.408,0-8-3.584-8-8
			c0-4.416,3.592-8,8-8s8,3.584,8,8C128,292.416,124.408,296,120,296z"/>
	</g>
</g>
<g>
	<g>
		<path d="M426.52,312H496v-60.544c0-19.896-14.264-36.52-33.912-39.536l-19.744-3.04L459.312,192H488v-16h-35.312l-26.272,26.264
			l-3.608,3.512c-24.536-4.296-48.336-13.736-69.048-27.544C328.032,161.072,298.08,152,267.144,152
			c-29.752,0-58.744,8.448-83.832,24.416l-13.136,8.36C146.288,199.968,118.712,208,90.408,208c-18.952,0-37.128,5.824-52.544,16.84
			C14.152,241.776,0,269.272,0,298.408V312h69.48c4.768,9.992,12.384,18.336,21.824,24H32v16h432v-16h-59.304
			C414.136,330.336,421.752,321.992,426.52,312z M64.64,296h-48.6c0.752-23.08,12.264-44.672,31.12-58.144
			C59.856,228.8,74.816,224,90.408,224c31.344,0,61.896-8.896,88.344-25.728l13.144-8.36C214.416,175.576,240.44,168,267.144,168
			c27.768,0,54.648,8.144,77.744,23.536c23.656,15.768,51,26.384,79.088,30.704l35.68,5.496c7.68,1.184,13.944,5.864,17.408,12.264
			H464v16h16v8h-16v16h16v16h-48.64c0.376-2.624,0.64-5.28,0.64-8c0-30.872-25.12-56-56-56s-56,25.128-56,56
			c0,2.72,0.264,5.376,0.64,8H175.36c0.376-2.624,0.64-5.28,0.64-8c0-30.872-25.12-56-56-56s-56,25.128-56,56
			C64,290.72,64.264,293.376,64.64,296z M120,328c-22.056,0-40-17.944-40-40c0-22.056,17.944-40,40-40c22.056,0,40,17.944,40,40
			C160,310.056,142.056,328,120,328z M148.696,336c9.44-5.664,17.056-14.008,21.824-24h154.96c4.768,9.992,12.384,18.336,21.824,24
			H148.696z M376,328c-22.056,0-40-17.944-40-40c0-22.056,17.944-40,40-40c22.056,0,40,17.944,40,40
			C416,310.056,398.056,328,376,328z"/>
	</g>
</g>
<g>
	<g>
		<path d="M340.44,209.344C316.648,193.48,289.24,184,267.144,184c-23.656,0-46.696,6.712-66.656,19.408l-13.144,8.368
			c-1.328,0.84-2.664,1.864-4,2.904c-1.096,0.848-2.184,1.736-3.304,2.368l-6.584,3.752l13.6,27.2H324.28l22.816-34.216
			L340.44,209.344z M315.72,232H196.944l-2.744-5.496c0.584-0.448,1.16-0.864,1.736-1.232l13.136-8.368
			C226.456,205.84,246.536,200,267.144,200c19.552,0,41.464,8.88,57.64,18.408L315.72,232z"/>
	</g>
</g>
<g>
	<g>
		<rect x="168" y="64" width="160" height="16"/>
	</g>
</g>
<g>
	<g>
		<rect x="248" y="32" width="160" height="16"/>
	</g>
</g>
<g>
	<g>
		<rect x="328" width="160" height="16"/>
	</g>
</g>
<g>
	<g>
		<rect x="88" y="480" width="160" height="16"/>
	</g>
</g>
<g>
	<g>
		<rect x="168" y="448" width="160" height="16"/>
	</g>
</g>
<g>
	<g>
		<rect x="248" y="416" width="160" height="16"/>
	</g>
</g>
<g>
	<g>
		<rect x="480" y="336" width="16" height="16"/>
	</g>
</g>
<g>
	<g>
		<rect y="336" width="16" height="16"/>
	</g>
</g>
<g>
</g>
<g>
</g>
<g>
</g>
<g>
</g>
<g>
</g>
<g>
</g>
<g>
</g>
<g>
</g>
<g>
</g>
<g>
</g>
<g>
</g>
<g>
</g>
<g>
</g>
<g>
</g>
<g>
</g>
</svg>
